# xmcd CD database file
#
# Track frame offsets:
#	150
#	12707
#	41062
#	54105
#	66450
#	77760
#	103095
#	120157
#	138022
#	152422
#	176557
#	187130
#	201157
#	213482
#
# Disc length: 3024 seconds
#
# Revision: 2
# Processed by: cddbd v1.5.1PL2 Copyright (c) Steve Scherf et al.
# Submitted via: CDex 1.51
#
DISCID=c00bce0e
DTITLE=Pe. Zezinho - 14 Cantigas Marianas
DYEAR=1900
DGENRE=Música Católica
TTITLE0=Maria de Nazaré
TTITLE1=Historia de Maria
TTITLE2=Louvacao a Maria
TTITLE3=O teu Segredo Maria
TTITLE4=Cantiga Mariana
TTITLE5=A Senhora Aparecida
TTITLE6=Outra cancao por Maira
TTITLE7=O Canto de Maria do povo
TTITLE8=Maria de Jesus Cristo
TTITLE9=Maria da Paz Inquieta
TTITLE10=Foi Maria que me ensinou
TTITLE11=O Canto de Maria
TTITLE12=E Te Chamavas Maria
TTITLE13=Bom Dia Maria
EXTD=
EXTT0=
EXTT1=
EXTT2=
EXTT3=
EXTT4=
EXTT5=
EXTT6=
EXTT7=
EXTT8=
EXTT9=
EXTT10=
EXTT11=
EXTT12=
EXTT13=
PLAYORDER=
